<?xml version="1.0" encoding="utf-8"?>
<!-- Generator: Adobe Illustrator 23.0.3, SVG Export Plug-In . SVG Version: 6.00 Build 0)  -->
<svg version="1.1" id="Слой_1" xmlns="http://www.w3.org/2000/svg" xmlns:xlink="http://www.w3.org/1999/xlink" x="0px" y="0px"
	 viewBox="0 0 56.69 56.69" style="enable-background:new 0 0 56.69 56.69;" xml:space="preserve">
<style type="text/css">
	.st0{opacity:0.27;fill:#FFFFFF;}
	.st1{fill:url(#SVGID_1_);}
	.st2{fill:url(#SVGID_2_);}
	.st3{fill:url(#SVGID_3_);}
	.st4{fill:url(#SVGID_4_);}
	.st5{fill:#F3C987;}
	.st6{fill:url(#SVGID_5_);}
	.st7{fill:url(#SVGID_6_);}
	.st8{fill:url(#SVGID_7_);}
	.st9{fill:url(#SVGID_8_);}
	.st10{fill:url(#SVGID_9_);}
	.st11{fill:url(#SVGID_10_);}
	.st12{fill:url(#SVGID_11_);}
	.st13{fill:url(#SVGID_12_);}
	.st14{fill:url(#SVGID_13_);}
	.st15{fill:url(#SVGID_14_);}
	.st16{fill:url(#SVGID_15_);}
	.st17{fill:url(#SVGID_16_);}
	.st18{fill:url(#SVGID_17_);}
	.st19{fill:url(#SVGID_18_);}
	.st20{fill:url(#SVGID_19_);}
	.st21{fill:url(#SVGID_20_);}
	.st22{fill:url(#SVGID_21_);}
	.st23{fill:url(#SVGID_22_);}
	.st24{fill:url(#SVGID_23_);}
	.st25{fill:url(#SVGID_24_);}
	.st26{fill:url(#SVGID_25_);}
</style>
<g>
	<g>
		<g>
			<g>
				<circle class="st0" cx="28.37" cy="23.93" r="12.82"/>
				<g>
					<linearGradient id="SVGID_1_" gradientUnits="userSpaceOnUse" x1="12.8282" y1="17.4737" x2="12.8282" y2="35.2003">
						<stop  offset="0" style="stop-color:#B2DCF1"/>
						<stop  offset="1" style="stop-color:#42ACE2"/>
					</linearGradient>
					<path class="st1" d="M10.93,27.89c-2.32,0-3.25-0.93-3.25-2.96v-6.26c0-0.45,0.2-0.64,0.64-0.64h2.77
						c0.45,0,0.64,0.2,0.64,0.64v4.89c0,0.37,0.21,0.61,0.55,0.61h1.66v-5.5c0-0.45,0.2-0.64,0.64-0.64h2.75
						c0.45,0,0.64,0.2,0.64,0.64v11.57c0,0.45-0.2,0.64-0.64,0.64h-2.75c-0.45,0-0.64-0.2-0.64-0.64v-2.34H10.93z"/>
					<linearGradient id="SVGID_2_" gradientUnits="userSpaceOnUse" x1="44.8929" y1="19.7609" x2="44.8929" y2="32.0531">
						<stop  offset="0" style="stop-color:#EDF1C3"/>
						<stop  offset="1" style="stop-color:#BBC452"/>
					</linearGradient>
					<path class="st2" d="M42.99,27.89c-2.32,0-3.25-0.93-3.25-2.96v-6.26c0-0.45,0.2-0.64,0.64-0.64h2.77
						c0.45,0,0.64,0.2,0.64,0.64v4.89c0,0.37,0.21,0.61,0.55,0.61h1.66v-5.5c0-0.45,0.2-0.64,0.64-0.64h2.75
						c0.45,0,0.64,0.2,0.64,0.64v11.57c0,0.45-0.2,0.64-0.64,0.64h-2.75c-0.45,0-0.64-0.2-0.64-0.64v-2.34H42.99z"/>
				</g>
				<g>
					<g>
						<linearGradient id="SVGID_3_" gradientUnits="userSpaceOnUse" x1="32.1365" y1="33.3458" x2="25.6015" y2="14.0677">
							<stop  offset="0" style="stop-color:#D0537E"/>
							<stop  offset="1" style="stop-color:#E8A546"/>
						</linearGradient>
						<path class="st3" d="M40.69,10.59c-0.24-0.22-3.18,2.61-7.23,6.9c-1.37-1.04-3.08-1.66-4.93-1.66c-4.51,0-8.17,3.66-8.17,8.17
							c0,2.15,0.84,4.11,2.2,5.57c-3.52,4.1-5.77,6.98-5.54,7.19c0.33,0.3,5.9-5.31,12.44-12.54C36,17,41.03,10.9,40.69,10.59z"/>
						<linearGradient id="SVGID_4_" gradientUnits="userSpaceOnUse" x1="32.6348" y1="33.1769" x2="26.0998" y2="13.8987">
							<stop  offset="0" style="stop-color:#D0537E"/>
							<stop  offset="1" style="stop-color:#E8A546"/>
						</linearGradient>
						<path class="st4" d="M30.06,24.77c-2.07,2.28-4.05,4.39-5.81,6.2c1.25,0.77,2.71,1.21,4.28,1.21c4.51,0,8.17-3.66,8.17-8.17
							c0-1.85-0.62-3.56-1.66-4.93C33.56,20.83,31.87,22.76,30.06,24.77z"/>
					</g>
					
						<ellipse transform="matrix(0.9379 -0.347 0.347 0.9379 -4.6675 10.6267)" class="st5" cx="27.34" cy="18.35" rx="2.12" ry="1.25"/>
					<circle class="st5" cx="23.74" cy="20.14" r="0.65"/>
					<circle class="st5" cx="35.07" cy="22.05" r="0.33"/>
				</g>
			</g>
			<linearGradient id="SVGID_5_" gradientUnits="userSpaceOnUse" x1="36.2941" y1="33.6886" x2="37.1926" y2="33.6886">
				<stop  offset="0" style="stop-color:#B2DCF1"/>
				<stop  offset="1" style="stop-color:#42ACE2"/>
			</linearGradient>
			<circle class="st6" cx="36.74" cy="33.69" r="0.45"/>
			<linearGradient id="SVGID_6_" gradientUnits="userSpaceOnUse" x1="13.4932" y1="15.84" x2="14.1671" y2="15.84">
				<stop  offset="0" style="stop-color:#B2DCF1"/>
				<stop  offset="1" style="stop-color:#42ACE2"/>
			</linearGradient>
			<circle class="st7" cx="13.83" cy="15.84" r="0.34"/>
			<linearGradient id="SVGID_7_" gradientUnits="userSpaceOnUse" x1="52.557" y1="25.4688" x2="52.9782" y2="25.4688">
				<stop  offset="0" style="stop-color:#B2DCF1"/>
				<stop  offset="1" style="stop-color:#42ACE2"/>
			</linearGradient>
			<path class="st8" d="M52.98,25.47c0,0.12-0.09,0.21-0.21,0.21c-0.12,0-0.21-0.09-0.21-0.21s0.09-0.21,0.21-0.21
				C52.88,25.26,52.98,25.35,52.98,25.47z"/>
			<linearGradient id="SVGID_8_" gradientUnits="userSpaceOnUse" x1="3.2253" y1="23.0829" x2="3.6465" y2="23.0829">
				<stop  offset="0" style="stop-color:#B2DCF1"/>
				<stop  offset="1" style="stop-color:#42ACE2"/>
			</linearGradient>
			<path class="st9" d="M3.65,23.08c0,0.12-0.09,0.21-0.21,0.21c-0.12,0-0.21-0.09-0.21-0.21c0-0.12,0.09-0.21,0.21-0.21
				C3.55,22.87,3.65,22.97,3.65,23.08z"/>
			<linearGradient id="SVGID_9_" gradientUnits="userSpaceOnUse" x1="29.5758" y1="13.5055" x2="29.997" y2="13.5055">
				<stop  offset="0" style="stop-color:#B2DCF1"/>
				<stop  offset="1" style="stop-color:#42ACE2"/>
			</linearGradient>
			<path class="st10" d="M30,13.51c0,0.12-0.09,0.21-0.21,0.21c-0.12,0-0.21-0.09-0.21-0.21c0-0.12,0.09-0.21,0.21-0.21
				C29.9,13.29,30,13.39,30,13.51z"/>
			<linearGradient id="SVGID_10_" gradientUnits="userSpaceOnUse" x1="40.2495" y1="14.159" x2="40.6707" y2="14.159">
				<stop  offset="0" style="stop-color:#B2DCF1"/>
				<stop  offset="1" style="stop-color:#42ACE2"/>
			</linearGradient>
			<path class="st11" d="M40.67,14.16c0,0.12-0.09,0.21-0.21,0.21c-0.12,0-0.21-0.09-0.21-0.21c0-0.12,0.09-0.21,0.21-0.21
				C40.58,13.95,40.67,14.04,40.67,14.16z"/>
			<linearGradient id="SVGID_11_" gradientUnits="userSpaceOnUse" x1="19.9703" y1="13.9203" x2="20.8689" y2="13.9203">
				<stop  offset="0" style="stop-color:#D0537E"/>
				<stop  offset="1" style="stop-color:#E8A546"/>
			</linearGradient>
			<circle class="st12" cx="20.42" cy="13.92" r="0.45"/>
			<linearGradient id="SVGID_12_" gradientUnits="userSpaceOnUse" x1="12.6797" y1="33.7702" x2="13.129" y2="33.7702">
				<stop  offset="0" style="stop-color:#D0537E"/>
				<stop  offset="1" style="stop-color:#E8A546"/>
			</linearGradient>
			<circle class="st13" cx="12.9" cy="33.77" r="0.22"/>
			<linearGradient id="SVGID_13_" gradientUnits="userSpaceOnUse" x1="25.3685" y1="34.0766" x2="25.8177" y2="34.0766">
				<stop  offset="0" style="stop-color:#D0537E"/>
				<stop  offset="1" style="stop-color:#E8A546"/>
			</linearGradient>
			<circle class="st14" cx="25.59" cy="34.08" r="0.22"/>
			<linearGradient id="SVGID_14_" gradientUnits="userSpaceOnUse" x1="44.6466" y1="34.0766" x2="45.0959" y2="34.0766">
				<stop  offset="0" style="stop-color:#D0537E"/>
				<stop  offset="1" style="stop-color:#E8A546"/>
			</linearGradient>
			<circle class="st15" cx="44.87" cy="34.08" r="0.22"/>
			<linearGradient id="SVGID_15_" gradientUnits="userSpaceOnUse" x1="49.0577" y1="14.4717" x2="49.507" y2="14.4717">
				<stop  offset="0" style="stop-color:#D0537E"/>
				<stop  offset="1" style="stop-color:#E8A546"/>
			</linearGradient>
			<circle class="st16" cx="49.28" cy="14.47" r="0.22"/>
			<radialGradient id="SVGID_16_" cx="40.7869" cy="39.5292" r="3.7573" gradientUnits="userSpaceOnUse">
				<stop  offset="0" style="stop-color:#DC8A6A"/>
				<stop  offset="0.037" style="stop-color:#A8735D"/>
				<stop  offset="0.085" style="stop-color:#7C5C4E"/>
				<stop  offset="0.1386" style="stop-color:#59463E"/>
				<stop  offset="0.1967" style="stop-color:#413530"/>
				<stop  offset="0.2604" style="stop-color:#302824"/>
				<stop  offset="0.3318" style="stop-color:#23201D"/>
				<stop  offset="0.4143" style="stop-color:#1A1919"/>
				<stop  offset="0.5149" style="stop-color:#141414"/>
				<stop  offset="0.6526" style="stop-color:#0F1011"/>
				<stop  offset="1" style="stop-color:#0E0F0F"/>
			</radialGradient>
			<circle class="st17" cx="40.79" cy="39.53" r="3.76"/>
			<radialGradient id="SVGID_17_" cx="53.7479" cy="23.5185" r="2.0146" gradientUnits="userSpaceOnUse">
				<stop  offset="0" style="stop-color:#DC8A6A"/>
				<stop  offset="0.037" style="stop-color:#A8735D"/>
				<stop  offset="0.085" style="stop-color:#7C5C4E"/>
				<stop  offset="0.1386" style="stop-color:#59463E"/>
				<stop  offset="0.1967" style="stop-color:#413530"/>
				<stop  offset="0.2604" style="stop-color:#302824"/>
				<stop  offset="0.3318" style="stop-color:#23201D"/>
				<stop  offset="0.4143" style="stop-color:#1A1919"/>
				<stop  offset="0.5149" style="stop-color:#141414"/>
				<stop  offset="0.6526" style="stop-color:#0F1011"/>
				<stop  offset="1" style="stop-color:#0E0F0F"/>
			</radialGradient>
			<circle class="st18" cx="53.75" cy="23.52" r="2.01"/>
			<radialGradient id="SVGID_18_" cx="10.3993" cy="30.707" r="2.0146" gradientUnits="userSpaceOnUse">
				<stop  offset="0" style="stop-color:#DC8A6A"/>
				<stop  offset="0.037" style="stop-color:#A8735D"/>
				<stop  offset="0.085" style="stop-color:#7C5C4E"/>
				<stop  offset="0.1386" style="stop-color:#59463E"/>
				<stop  offset="0.1967" style="stop-color:#413530"/>
				<stop  offset="0.2604" style="stop-color:#302824"/>
				<stop  offset="0.3318" style="stop-color:#23201D"/>
				<stop  offset="0.4143" style="stop-color:#1A1919"/>
				<stop  offset="0.5149" style="stop-color:#141414"/>
				<stop  offset="0.6526" style="stop-color:#0F1011"/>
				<stop  offset="1" style="stop-color:#0E0F0F"/>
			</radialGradient>
			<circle class="st19" cx="10.4" cy="30.71" r="2.01"/>
			<radialGradient id="SVGID_19_" cx="49.9358" cy="34.1378" r="2.0146" gradientUnits="userSpaceOnUse">
				<stop  offset="0" style="stop-color:#DC8A6A"/>
				<stop  offset="0.037" style="stop-color:#A8735D"/>
				<stop  offset="0.085" style="stop-color:#7C5C4E"/>
				<stop  offset="0.1386" style="stop-color:#59463E"/>
				<stop  offset="0.1967" style="stop-color:#413530"/>
				<stop  offset="0.2604" style="stop-color:#302824"/>
				<stop  offset="0.3318" style="stop-color:#23201D"/>
				<stop  offset="0.4143" style="stop-color:#1A1919"/>
				<stop  offset="0.5149" style="stop-color:#141414"/>
				<stop  offset="0.6526" style="stop-color:#0F1011"/>
				<stop  offset="1" style="stop-color:#0E0F0F"/>
			</radialGradient>
			<circle class="st20" cx="49.94" cy="34.14" r="2.01"/>
			<radialGradient id="SVGID_20_" cx="35.5573" cy="8.6518" r="2.0146" gradientUnits="userSpaceOnUse">
				<stop  offset="0" style="stop-color:#DC8A6A"/>
				<stop  offset="0.037" style="stop-color:#A8735D"/>
				<stop  offset="0.085" style="stop-color:#7C5C4E"/>
				<stop  offset="0.1386" style="stop-color:#59463E"/>
				<stop  offset="0.1967" style="stop-color:#413530"/>
				<stop  offset="0.2604" style="stop-color:#302824"/>
				<stop  offset="0.3318" style="stop-color:#23201D"/>
				<stop  offset="0.4143" style="stop-color:#1A1919"/>
				<stop  offset="0.5149" style="stop-color:#141414"/>
				<stop  offset="0.6526" style="stop-color:#0F1011"/>
				<stop  offset="1" style="stop-color:#0E0F0F"/>
			</radialGradient>
			<circle class="st21" cx="35.56" cy="8.65" r="2.01"/>
			<radialGradient id="SVGID_21_" cx="5.6615" cy="31.6872" r="3.7573" gradientUnits="userSpaceOnUse">
				<stop  offset="0" style="stop-color:#DC8A6A"/>
				<stop  offset="0.037" style="stop-color:#A8735D"/>
				<stop  offset="0.085" style="stop-color:#7C5C4E"/>
				<stop  offset="0.1386" style="stop-color:#59463E"/>
				<stop  offset="0.1967" style="stop-color:#413530"/>
				<stop  offset="0.2604" style="stop-color:#302824"/>
				<stop  offset="0.3318" style="stop-color:#23201D"/>
				<stop  offset="0.4143" style="stop-color:#1A1919"/>
				<stop  offset="0.5149" style="stop-color:#141414"/>
				<stop  offset="0.6526" style="stop-color:#0F1011"/>
				<stop  offset="1" style="stop-color:#0E0F0F"/>
			</radialGradient>
			<circle class="st22" cx="5.66" cy="31.69" r="3.76"/>
			<radialGradient id="SVGID_22_" cx="27.1179" cy="7.0178" r="3.7573" gradientUnits="userSpaceOnUse">
				<stop  offset="0" style="stop-color:#DC8A6A"/>
				<stop  offset="0.037" style="stop-color:#A8735D"/>
				<stop  offset="0.085" style="stop-color:#7C5C4E"/>
				<stop  offset="0.1386" style="stop-color:#59463E"/>
				<stop  offset="0.1967" style="stop-color:#413530"/>
				<stop  offset="0.2604" style="stop-color:#302824"/>
				<stop  offset="0.3318" style="stop-color:#23201D"/>
				<stop  offset="0.4143" style="stop-color:#1A1919"/>
				<stop  offset="0.5149" style="stop-color:#141414"/>
				<stop  offset="0.6526" style="stop-color:#0F1011"/>
				<stop  offset="1" style="stop-color:#0E0F0F"/>
			</radialGradient>
			<circle class="st23" cx="27.12" cy="7.02" r="3.76"/>
			<radialGradient id="SVGID_23_" cx="43.891" cy="13.8795" r="2.9404" gradientUnits="userSpaceOnUse">
				<stop  offset="0" style="stop-color:#DC8A6A"/>
				<stop  offset="0.037" style="stop-color:#A8735D"/>
				<stop  offset="0.085" style="stop-color:#7C5C4E"/>
				<stop  offset="0.1386" style="stop-color:#59463E"/>
				<stop  offset="0.1967" style="stop-color:#413530"/>
				<stop  offset="0.2604" style="stop-color:#302824"/>
				<stop  offset="0.3318" style="stop-color:#23201D"/>
				<stop  offset="0.4143" style="stop-color:#1A1919"/>
				<stop  offset="0.5149" style="stop-color:#141414"/>
				<stop  offset="0.6526" style="stop-color:#0F1011"/>
				<stop  offset="1" style="stop-color:#0E0F0F"/>
			</radialGradient>
			<circle class="st24" cx="43.89" cy="13.88" r="2.94"/>
			<radialGradient id="SVGID_24_" cx="21.3454" cy="38.7123" r="2.9404" gradientUnits="userSpaceOnUse">
				<stop  offset="0" style="stop-color:#DC8A6A"/>
				<stop  offset="0.037" style="stop-color:#A8735D"/>
				<stop  offset="0.085" style="stop-color:#7C5C4E"/>
				<stop  offset="0.1386" style="stop-color:#59463E"/>
				<stop  offset="0.1967" style="stop-color:#413530"/>
				<stop  offset="0.2604" style="stop-color:#302824"/>
				<stop  offset="0.3318" style="stop-color:#23201D"/>
				<stop  offset="0.4143" style="stop-color:#1A1919"/>
				<stop  offset="0.5149" style="stop-color:#141414"/>
				<stop  offset="0.6526" style="stop-color:#0F1011"/>
				<stop  offset="1" style="stop-color:#0E0F0F"/>
			</radialGradient>
			<circle class="st25" cx="21.35" cy="38.71" r="2.94"/>
			<radialGradient id="SVGID_25_" cx="9.2557" cy="12.0824" r="2.9404" gradientUnits="userSpaceOnUse">
				<stop  offset="0" style="stop-color:#DC8A6A"/>
				<stop  offset="0.037" style="stop-color:#A8735D"/>
				<stop  offset="0.085" style="stop-color:#7C5C4E"/>
				<stop  offset="0.1386" style="stop-color:#59463E"/>
				<stop  offset="0.1967" style="stop-color:#413530"/>
				<stop  offset="0.2604" style="stop-color:#302824"/>
				<stop  offset="0.3318" style="stop-color:#23201D"/>
				<stop  offset="0.4143" style="stop-color:#1A1919"/>
				<stop  offset="0.5149" style="stop-color:#141414"/>
				<stop  offset="0.6526" style="stop-color:#0F1011"/>
				<stop  offset="1" style="stop-color:#0E0F0F"/>
			</radialGradient>
			<circle class="st26" cx="9.26" cy="12.08" r="2.94"/>
		</g>
	</g>
</g>
</svg>
