<?xml version="1.0" encoding="utf-8"?>
<!-- Generator: Adobe Illustrator 23.0.3, SVG Export Plug-In . SVG Version: 6.00 Build 0)  -->
<svg version="1.1" id="Слой_1" xmlns="http://www.w3.org/2000/svg" xmlns:xlink="http://www.w3.org/1999/xlink" x="0px" y="0px"
	 viewBox="0 0 56.69 42.52" style="enable-background:new 0 0 56.69 42.52;" xml:space="preserve">
<style type="text/css">
	.st0{fill:url(#SVGID_1_);}
	.st1{fill:url(#SVGID_2_);}
	.st2{fill:url(#SVGID_3_);}
	.st3{fill:url(#SVGID_4_);}
	.st4{fill:#F3C987;}
	.st5{fill:url(#SVGID_5_);}
	.st6{fill:url(#SVGID_6_);}
	.st7{fill:url(#SVGID_7_);}
	.st8{fill:url(#SVGID_8_);}
	.st9{fill:url(#SVGID_9_);}
	.st10{fill:url(#SVGID_10_);}
	.st11{fill:url(#SVGID_11_);}
	.st12{fill:url(#SVGID_12_);}
	.st13{fill:url(#SVGID_13_);}
	.st14{fill:url(#SVGID_14_);}
	.st15{fill:url(#SVGID_15_);}
	.st16{fill:url(#SVGID_16_);}
	.st17{fill:url(#SVGID_17_);}
	.st18{fill:url(#SVGID_18_);}
	.st19{fill:url(#SVGID_19_);}
	.st20{fill:url(#SVGID_20_);}
	.st21{fill:url(#SVGID_21_);}
	.st22{fill:url(#SVGID_22_);}
	.st23{fill:url(#SVGID_23_);}
	.st24{fill:url(#SVGID_24_);}
	.st25{fill:url(#SVGID_25_);}
</style>
<g>
	<g>
		<g>
			<g>
				<g>
					<linearGradient id="SVGID_1_" gradientUnits="userSpaceOnUse" x1="11.8282" y1="15.6684" x2="11.8282" y2="33.3951">
						<stop  offset="0" style="stop-color:#B2DCF1"/>
						<stop  offset="1" style="stop-color:#42ACE2"/>
					</linearGradient>
					<path class="st0" d="M9.93,26.08c-2.32,0-3.25-0.93-3.25-2.96v-6.26c0-0.45,0.2-0.64,0.64-0.64h2.77c0.45,0,0.64,0.2,0.64,0.64
						v4.89c0,0.37,0.21,0.61,0.55,0.61h1.66v-5.5c0-0.45,0.2-0.64,0.64-0.64h2.75c0.45,0,0.64,0.2,0.64,0.64v11.57
						c0,0.45-0.2,0.64-0.64,0.64h-2.75c-0.45,0-0.64-0.2-0.64-0.64v-2.34H9.93z"/>
					<linearGradient id="SVGID_2_" gradientUnits="userSpaceOnUse" x1="43.8929" y1="17.9557" x2="43.8929" y2="30.2479">
						<stop  offset="0" style="stop-color:#EDF1C3"/>
						<stop  offset="1" style="stop-color:#BBC452"/>
					</linearGradient>
					<path class="st1" d="M41.99,26.08c-2.32,0-3.25-0.93-3.25-2.96v-6.26c0-0.45,0.2-0.64,0.64-0.64h2.77
						c0.45,0,0.64,0.2,0.64,0.64v4.89c0,0.37,0.21,0.61,0.55,0.61h1.66v-5.5c0-0.45,0.2-0.64,0.64-0.64h2.75
						c0.45,0,0.64,0.2,0.64,0.64v11.57c0,0.45-0.2,0.64-0.64,0.64h-2.75c-0.45,0-0.64-0.2-0.64-0.64v-2.34H41.99z"/>
				</g>
				<g>
					<g>
						<linearGradient id="SVGID_3_" gradientUnits="userSpaceOnUse" x1="31.1365" y1="31.5405" x2="24.6015" y2="12.2624">
							<stop  offset="0" style="stop-color:#D0537E"/>
							<stop  offset="1" style="stop-color:#E8A546"/>
						</linearGradient>
						<path class="st2" d="M39.69,8.79c-0.24-0.22-3.18,2.61-7.23,6.9c-1.37-1.04-3.08-1.66-4.93-1.66c-4.51,0-8.17,3.66-8.17,8.17
							c0,2.15,0.84,4.11,2.2,5.57c-3.52,4.1-5.77,6.98-5.54,7.19c0.33,0.3,5.9-5.31,12.44-12.54C35,15.2,40.03,9.09,39.69,8.79z"/>
						<linearGradient id="SVGID_4_" gradientUnits="userSpaceOnUse" x1="31.6348" y1="31.3716" x2="25.0998" y2="12.0935">
							<stop  offset="0" style="stop-color:#D0537E"/>
							<stop  offset="1" style="stop-color:#E8A546"/>
						</linearGradient>
						<path class="st3" d="M29.06,22.96c-2.07,2.28-4.05,4.39-5.81,6.2c1.25,0.77,2.71,1.21,4.28,1.21c4.51,0,8.17-3.66,8.17-8.17
							c0-1.85-0.62-3.56-1.66-4.93C32.56,19.02,30.87,20.95,29.06,22.96z"/>
					</g>
					
						<ellipse transform="matrix(0.9379 -0.347 0.347 0.9379 -4.1032 10.1675)" class="st4" cx="26.34" cy="16.54" rx="2.12" ry="1.25"/>
					<circle class="st4" cx="22.74" cy="18.34" r="0.65"/>
					<circle class="st4" cx="34.07" cy="20.24" r="0.33"/>
				</g>
			</g>
			<linearGradient id="SVGID_5_" gradientUnits="userSpaceOnUse" x1="35.2941" y1="31.8833" x2="36.1926" y2="31.8833">
				<stop  offset="0" style="stop-color:#B2DCF1"/>
				<stop  offset="1" style="stop-color:#42ACE2"/>
			</linearGradient>
			<circle class="st5" cx="35.74" cy="31.88" r="0.45"/>
			<linearGradient id="SVGID_6_" gradientUnits="userSpaceOnUse" x1="12.4932" y1="14.0347" x2="13.1671" y2="14.0347">
				<stop  offset="0" style="stop-color:#B2DCF1"/>
				<stop  offset="1" style="stop-color:#42ACE2"/>
			</linearGradient>
			<circle class="st6" cx="12.83" cy="14.03" r="0.34"/>
			<linearGradient id="SVGID_7_" gradientUnits="userSpaceOnUse" x1="51.557" y1="23.6635" x2="51.9782" y2="23.6635">
				<stop  offset="0" style="stop-color:#B2DCF1"/>
				<stop  offset="1" style="stop-color:#42ACE2"/>
			</linearGradient>
			<path class="st7" d="M51.98,23.66c0,0.12-0.09,0.21-0.21,0.21c-0.12,0-0.21-0.09-0.21-0.21s0.09-0.21,0.21-0.21
				C51.88,23.45,51.98,23.55,51.98,23.66z"/>
			<linearGradient id="SVGID_8_" gradientUnits="userSpaceOnUse" x1="2.2253" y1="21.2776" x2="2.6465" y2="21.2776">
				<stop  offset="0" style="stop-color:#B2DCF1"/>
				<stop  offset="1" style="stop-color:#42ACE2"/>
			</linearGradient>
			<path class="st8" d="M2.65,21.28c0,0.12-0.09,0.21-0.21,0.21c-0.12,0-0.21-0.09-0.21-0.21c0-0.12,0.09-0.21,0.21-0.21
				C2.55,21.07,2.65,21.16,2.65,21.28z"/>
			<linearGradient id="SVGID_9_" gradientUnits="userSpaceOnUse" x1="28.5758" y1="11.7002" x2="28.997" y2="11.7002">
				<stop  offset="0" style="stop-color:#B2DCF1"/>
				<stop  offset="1" style="stop-color:#42ACE2"/>
			</linearGradient>
			<path class="st9" d="M29,11.7c0,0.12-0.09,0.21-0.21,0.21c-0.12,0-0.21-0.09-0.21-0.21c0-0.12,0.09-0.21,0.21-0.21
				C28.9,11.49,29,11.58,29,11.7z"/>
			<linearGradient id="SVGID_10_" gradientUnits="userSpaceOnUse" x1="39.2495" y1="12.3537" x2="39.6707" y2="12.3537">
				<stop  offset="0" style="stop-color:#B2DCF1"/>
				<stop  offset="1" style="stop-color:#42ACE2"/>
			</linearGradient>
			<path class="st10" d="M39.67,12.35c0,0.12-0.09,0.21-0.21,0.21c-0.12,0-0.21-0.09-0.21-0.21c0-0.12,0.09-0.21,0.21-0.21
				C39.58,12.14,39.67,12.24,39.67,12.35z"/>
			<linearGradient id="SVGID_11_" gradientUnits="userSpaceOnUse" x1="18.9703" y1="12.115" x2="19.8689" y2="12.115">
				<stop  offset="0" style="stop-color:#D0537E"/>
				<stop  offset="1" style="stop-color:#E8A546"/>
			</linearGradient>
			<circle class="st11" cx="19.42" cy="12.12" r="0.45"/>
			<linearGradient id="SVGID_12_" gradientUnits="userSpaceOnUse" x1="11.6797" y1="31.965" x2="12.129" y2="31.965">
				<stop  offset="0" style="stop-color:#D0537E"/>
				<stop  offset="1" style="stop-color:#E8A546"/>
			</linearGradient>
			<circle class="st12" cx="11.9" cy="31.96" r="0.22"/>
			<linearGradient id="SVGID_13_" gradientUnits="userSpaceOnUse" x1="24.3685" y1="32.2713" x2="24.8177" y2="32.2713">
				<stop  offset="0" style="stop-color:#D0537E"/>
				<stop  offset="1" style="stop-color:#E8A546"/>
			</linearGradient>
			<circle class="st13" cx="24.59" cy="32.27" r="0.22"/>
			<linearGradient id="SVGID_14_" gradientUnits="userSpaceOnUse" x1="43.6466" y1="32.2713" x2="44.0959" y2="32.2713">
				<stop  offset="0" style="stop-color:#D0537E"/>
				<stop  offset="1" style="stop-color:#E8A546"/>
			</linearGradient>
			<circle class="st14" cx="43.87" cy="32.27" r="0.22"/>
			<linearGradient id="SVGID_15_" gradientUnits="userSpaceOnUse" x1="48.0577" y1="12.6664" x2="48.507" y2="12.6664">
				<stop  offset="0" style="stop-color:#D0537E"/>
				<stop  offset="1" style="stop-color:#E8A546"/>
			</linearGradient>
			<circle class="st15" cx="48.28" cy="12.67" r="0.22"/>
			<radialGradient id="SVGID_16_" cx="39.7869" cy="37.7239" r="3.7573" gradientUnits="userSpaceOnUse">
				<stop  offset="0" style="stop-color:#DC8A6A"/>
				<stop  offset="0.037" style="stop-color:#A8735D"/>
				<stop  offset="0.085" style="stop-color:#7C5C4E"/>
				<stop  offset="0.1386" style="stop-color:#59463E"/>
				<stop  offset="0.1967" style="stop-color:#413530"/>
				<stop  offset="0.2604" style="stop-color:#302824"/>
				<stop  offset="0.3318" style="stop-color:#23201D"/>
				<stop  offset="0.4143" style="stop-color:#1A1919"/>
				<stop  offset="0.5149" style="stop-color:#141414"/>
				<stop  offset="0.6526" style="stop-color:#0F1011"/>
				<stop  offset="1" style="stop-color:#0E0F0F"/>
			</radialGradient>
			<circle class="st16" cx="39.79" cy="37.72" r="3.76"/>
			<radialGradient id="SVGID_17_" cx="52.7479" cy="21.7133" r="2.0146" gradientUnits="userSpaceOnUse">
				<stop  offset="0" style="stop-color:#DC8A6A"/>
				<stop  offset="0.037" style="stop-color:#A8735D"/>
				<stop  offset="0.085" style="stop-color:#7C5C4E"/>
				<stop  offset="0.1386" style="stop-color:#59463E"/>
				<stop  offset="0.1967" style="stop-color:#413530"/>
				<stop  offset="0.2604" style="stop-color:#302824"/>
				<stop  offset="0.3318" style="stop-color:#23201D"/>
				<stop  offset="0.4143" style="stop-color:#1A1919"/>
				<stop  offset="0.5149" style="stop-color:#141414"/>
				<stop  offset="0.6526" style="stop-color:#0F1011"/>
				<stop  offset="1" style="stop-color:#0E0F0F"/>
			</radialGradient>
			<circle class="st17" cx="52.75" cy="21.71" r="2.01"/>
			<radialGradient id="SVGID_18_" cx="9.3993" cy="28.9017" r="2.0146" gradientUnits="userSpaceOnUse">
				<stop  offset="0" style="stop-color:#DC8A6A"/>
				<stop  offset="0.037" style="stop-color:#A8735D"/>
				<stop  offset="0.085" style="stop-color:#7C5C4E"/>
				<stop  offset="0.1386" style="stop-color:#59463E"/>
				<stop  offset="0.1967" style="stop-color:#413530"/>
				<stop  offset="0.2604" style="stop-color:#302824"/>
				<stop  offset="0.3318" style="stop-color:#23201D"/>
				<stop  offset="0.4143" style="stop-color:#1A1919"/>
				<stop  offset="0.5149" style="stop-color:#141414"/>
				<stop  offset="0.6526" style="stop-color:#0F1011"/>
				<stop  offset="1" style="stop-color:#0E0F0F"/>
			</radialGradient>
			<circle class="st18" cx="9.4" cy="28.9" r="2.01"/>
			<radialGradient id="SVGID_19_" cx="48.9358" cy="32.3326" r="2.0146" gradientUnits="userSpaceOnUse">
				<stop  offset="0" style="stop-color:#DC8A6A"/>
				<stop  offset="0.037" style="stop-color:#A8735D"/>
				<stop  offset="0.085" style="stop-color:#7C5C4E"/>
				<stop  offset="0.1386" style="stop-color:#59463E"/>
				<stop  offset="0.1967" style="stop-color:#413530"/>
				<stop  offset="0.2604" style="stop-color:#302824"/>
				<stop  offset="0.3318" style="stop-color:#23201D"/>
				<stop  offset="0.4143" style="stop-color:#1A1919"/>
				<stop  offset="0.5149" style="stop-color:#141414"/>
				<stop  offset="0.6526" style="stop-color:#0F1011"/>
				<stop  offset="1" style="stop-color:#0E0F0F"/>
			</radialGradient>
			<circle class="st19" cx="48.94" cy="32.33" r="2.01"/>
			<radialGradient id="SVGID_20_" cx="34.5573" cy="6.8466" r="2.0146" gradientUnits="userSpaceOnUse">
				<stop  offset="0" style="stop-color:#DC8A6A"/>
				<stop  offset="0.037" style="stop-color:#A8735D"/>
				<stop  offset="0.085" style="stop-color:#7C5C4E"/>
				<stop  offset="0.1386" style="stop-color:#59463E"/>
				<stop  offset="0.1967" style="stop-color:#413530"/>
				<stop  offset="0.2604" style="stop-color:#302824"/>
				<stop  offset="0.3318" style="stop-color:#23201D"/>
				<stop  offset="0.4143" style="stop-color:#1A1919"/>
				<stop  offset="0.5149" style="stop-color:#141414"/>
				<stop  offset="0.6526" style="stop-color:#0F1011"/>
				<stop  offset="1" style="stop-color:#0E0F0F"/>
			</radialGradient>
			<circle class="st20" cx="34.56" cy="6.85" r="2.01"/>
			<radialGradient id="SVGID_21_" cx="4.6615" cy="29.882" r="3.7573" gradientUnits="userSpaceOnUse">
				<stop  offset="0" style="stop-color:#DC8A6A"/>
				<stop  offset="0.037" style="stop-color:#A8735D"/>
				<stop  offset="0.085" style="stop-color:#7C5C4E"/>
				<stop  offset="0.1386" style="stop-color:#59463E"/>
				<stop  offset="0.1967" style="stop-color:#413530"/>
				<stop  offset="0.2604" style="stop-color:#302824"/>
				<stop  offset="0.3318" style="stop-color:#23201D"/>
				<stop  offset="0.4143" style="stop-color:#1A1919"/>
				<stop  offset="0.5149" style="stop-color:#141414"/>
				<stop  offset="0.6526" style="stop-color:#0F1011"/>
				<stop  offset="1" style="stop-color:#0E0F0F"/>
			</radialGradient>
			<circle class="st21" cx="4.66" cy="29.88" r="3.76"/>
			<radialGradient id="SVGID_22_" cx="26.1179" cy="5.2125" r="3.7573" gradientUnits="userSpaceOnUse">
				<stop  offset="0" style="stop-color:#DC8A6A"/>
				<stop  offset="0.037" style="stop-color:#A8735D"/>
				<stop  offset="0.085" style="stop-color:#7C5C4E"/>
				<stop  offset="0.1386" style="stop-color:#59463E"/>
				<stop  offset="0.1967" style="stop-color:#413530"/>
				<stop  offset="0.2604" style="stop-color:#302824"/>
				<stop  offset="0.3318" style="stop-color:#23201D"/>
				<stop  offset="0.4143" style="stop-color:#1A1919"/>
				<stop  offset="0.5149" style="stop-color:#141414"/>
				<stop  offset="0.6526" style="stop-color:#0F1011"/>
				<stop  offset="1" style="stop-color:#0E0F0F"/>
			</radialGradient>
			<circle class="st22" cx="26.12" cy="5.21" r="3.76"/>
			<radialGradient id="SVGID_23_" cx="42.891" cy="12.0742" r="2.9404" gradientUnits="userSpaceOnUse">
				<stop  offset="0" style="stop-color:#DC8A6A"/>
				<stop  offset="0.037" style="stop-color:#A8735D"/>
				<stop  offset="0.085" style="stop-color:#7C5C4E"/>
				<stop  offset="0.1386" style="stop-color:#59463E"/>
				<stop  offset="0.1967" style="stop-color:#413530"/>
				<stop  offset="0.2604" style="stop-color:#302824"/>
				<stop  offset="0.3318" style="stop-color:#23201D"/>
				<stop  offset="0.4143" style="stop-color:#1A1919"/>
				<stop  offset="0.5149" style="stop-color:#141414"/>
				<stop  offset="0.6526" style="stop-color:#0F1011"/>
				<stop  offset="1" style="stop-color:#0E0F0F"/>
			</radialGradient>
			<circle class="st23" cx="42.89" cy="12.07" r="2.94"/>
			<radialGradient id="SVGID_24_" cx="20.3454" cy="36.907" r="2.9404" gradientUnits="userSpaceOnUse">
				<stop  offset="0" style="stop-color:#DC8A6A"/>
				<stop  offset="0.037" style="stop-color:#A8735D"/>
				<stop  offset="0.085" style="stop-color:#7C5C4E"/>
				<stop  offset="0.1386" style="stop-color:#59463E"/>
				<stop  offset="0.1967" style="stop-color:#413530"/>
				<stop  offset="0.2604" style="stop-color:#302824"/>
				<stop  offset="0.3318" style="stop-color:#23201D"/>
				<stop  offset="0.4143" style="stop-color:#1A1919"/>
				<stop  offset="0.5149" style="stop-color:#141414"/>
				<stop  offset="0.6526" style="stop-color:#0F1011"/>
				<stop  offset="1" style="stop-color:#0E0F0F"/>
			</radialGradient>
			<circle class="st24" cx="20.35" cy="36.91" r="2.94"/>
			<radialGradient id="SVGID_25_" cx="8.2557" cy="10.2771" r="2.9404" gradientUnits="userSpaceOnUse">
				<stop  offset="0" style="stop-color:#DC8A6A"/>
				<stop  offset="0.037" style="stop-color:#A8735D"/>
				<stop  offset="0.085" style="stop-color:#7C5C4E"/>
				<stop  offset="0.1386" style="stop-color:#59463E"/>
				<stop  offset="0.1967" style="stop-color:#413530"/>
				<stop  offset="0.2604" style="stop-color:#302824"/>
				<stop  offset="0.3318" style="stop-color:#23201D"/>
				<stop  offset="0.4143" style="stop-color:#1A1919"/>
				<stop  offset="0.5149" style="stop-color:#141414"/>
				<stop  offset="0.6526" style="stop-color:#0F1011"/>
				<stop  offset="1" style="stop-color:#0E0F0F"/>
			</radialGradient>
			<circle class="st25" cx="8.26" cy="10.28" r="2.94"/>
		</g>
	</g>
</g>
</svg>
